<?xml version="1.0" encoding="UTF-8" standalone="no"?>
<svg
   version="1.1"
   x="0"
   y="0"
   viewBox="0 0 699.99999 141.11491"
   xml:space="preserve"
   width="700"
   height="141.11491"
   id="svg155"
   sodipodi:docname="Logo Hoka One One.svg"
   inkscape:version="1.2 (dc2aeda, 2022-05-15)"
   xmlns:inkscape="http://www.inkscape.org/namespaces/inkscape"
   xmlns:sodipodi="http://sodipodi.sourceforge.net/DTD/sodipodi-0.dtd"
   xmlns="http://www.w3.org/2000/svg"
   xmlns:svg="http://www.w3.org/2000/svg"><defs
   id="defs159" /><sodipodi:namedview
   id="namedview157"
   pagecolor="#ffffff"
   bordercolor="#666666"
   borderopacity="1.0"
   inkscape:showpageshadow="2"
   inkscape:pageopacity="0.0"
   inkscape:pagecheckerboard="0"
   inkscape:deskcolor="#d1d1d1"
   showgrid="false"
   inkscape:zoom="0.94661523"
   inkscape:cx="325.89799"
   inkscape:cy="61.270935"
   inkscape:window-width="1440"
   inkscape:window-height="900"
   inkscape:window-x="0"
   inkscape:window-y="0"
   inkscape:window-maximized="0"
   inkscape:current-layer="svg155" />
    <clipPath
   id="b">
        <path
   d="M 0,0 H 174.658 V 35.214 H 0 Z"
   id="path132" />
    </clipPath>
    <g
   id="g2655"><path
     id="path2644"
     style="stroke-width:4.00895;fill:#0082c8;fill-opacity:1"
     d="M 536.79883 73.363281 C 515.55144 73.363281 499.91558 87.394741 498.71289 107.43945 C 497.51021 126.68237 510.73944 139.51172 531.58594 139.51172 C 542.41009 139.91261 553.23362 135.10238 560.04883 126.68359 C 564.85956 120.26929 567.66747 112.65215 568.06836 105.03516 C 569.27105 86.193129 556.44265 73.363281 536.79883 73.363281 z M 536.28516 89.398438 C 543.68594 89.758127 550.0519 95.512529 550.42773 103.0293 C 550.82862 104.63288 550.82862 105.43454 550.42773 106.23633 C 550.02684 115.85779 542.01013 123.47461 532.38867 123.47461 L 531.98633 123.47461 C 523.96844 124.2764 516.75296 117.86359 515.95117 109.8457 L 515.95117 106.63867 C 516.35207 96.616317 524.77061 88.999497 534.79297 89.400391 C 535.29409 89.375335 535.79177 89.374458 536.28516 89.398438 z " /><path
     style="stroke-width:4.00895;fill:#0082c8;fill-opacity:1"
     d="m 637.02156,75.368189 h -10.02237 c -3.20715,0 -3.20715,0 -3.60805,3.207157 0,0 -2.40537,21.247416 -4.40984,36.481414 -6.01342,-10.02237 -22.0492,-37.283203 -22.0492,-37.283203 -1.20269,-2.405368 -1.20269,-2.405368 -4.00895,-2.405368 h -12.82863 c -3.20715,0 -3.20715,0 -3.60805,3.207157 l -6.81521,56.526144 v 1.60358 c 0,1.60358 0.80179,2.00447 3.60805,2.00447 h 10.02237 c 3.20716,0 3.20716,0 3.60805,-3.20716 0,0 3.20716,-29.2653 4.00895,-37.283197 2.80626,4.810737 22.4501,38.084987 22.4501,38.084987 1.60357,2.40537 1.60357,2.40537 4.00894,2.40537 h 12.82863 c 3.20716,0 3.20716,0 3.60805,-3.20716 l 6.81521,-56.526139 v -1.603578 c -0.40089,-1.603579 -0.80179,-2.004474 -3.60805,-2.004474"
     id="path2642" /><path
     style="stroke-width:4.00895;fill:#0082c8;fill-opacity:1"
     d="m 679.11549,100.22366 h -16.43667 l 1.20268,-10.824159 h 16.83757 c 3.20716,0 3.20716,0 3.60805,-3.207157 l 0.80179,-6.815208 v -1.603579 c 0,-1.603578 -0.80179,-2.004473 -3.60805,-2.004473 h -29.26531 c -3.20715,0 -3.20715,0 -3.60805,3.207157 l -6.81521,56.526139 v 1.60358 c 0,1.60358 0.80179,2.00447 3.60806,2.00447 h 29.6662 c 3.20716,0 3.20716,0 3.60805,-3.20715 l 0.80179,-6.81521 v -1.60358 c 0,-1.60358 -0.80179,-2.00447 -3.60805,-2.00447 h -16.43668 l 1.20268,-10.42326 h 16.83758 c 3.20715,0 3.20715,0 3.60805,-3.20716 l 0.80179,-6.81521 v -1.60358 c 0.40089,-2.40536 0,-3.20715 -2.80627,-3.20715"
     id="path2640" /></g><g
   id="g2660"><path
     id="path2636"
     style="stroke-width:4.00895;fill:#0082c8;fill-opacity:1"
     d="M 523.96875 0.40039062 C 502.72136 0.40039062 487.08744 14.431851 485.88477 34.476562 C 485.48387 53.719485 498.71259 66.949722 519.1582 66.548828 C 529.98234 66.949722 540.80589 62.139482 547.62109 53.720703 C 552.43182 47.306396 555.23974 39.689256 555.64062 32.072266 C 556.8433 13.230237 544.01347 0.40039062 523.96875 0.40039062 z M 524.25977 16.835938 C 531.66055 17.195627 538.02651 22.951984 538.40234 30.46875 L 538.40234 33.273438 C 538.00145 42.894899 529.98279 50.513672 520.36133 50.513672 L 519.96094 50.513672 C 511.94306 51.31546 504.72562 44.900697 503.92383 36.882812 L 503.92383 34.076172 C 504.32473 24.053816 512.74328 16.436997 522.76562 16.837891 C 523.26674 16.812835 523.76638 16.811958 524.25977 16.835938 z " /><path
     style="stroke-width:4.00895;fill:#0082c8;fill-opacity:1"
     d="m 560.04979,66.147613 h 10.02237 c 3.20715,0 3.20715,0 3.60805,-3.207157 0,0 3.20716,-29.265308 4.00894,-37.2832 2.80627,4.810735 22.4501,38.084989 22.4501,38.084989 1.60358,2.405368 1.60358,2.405368 4.00895,2.405368 h 12.82863 c 3.20715,0 3.20715,0 3.60805,-3.207157 l 7.617,-56.9270366 V 4.4098409 c 0,-1.6035785 -0.80179,-2.0044732 -3.60805,-2.0044732 h -10.02237 c -3.20716,0 -3.20716,0 -3.60805,3.207157 0,0 -2.40537,21.2474153 -4.40984,36.0805163 C 600.54015,31.670675 584.50436,4.4098409 584.50436,4.4098409 583.30168,2.0044731 583.30168,2.0044731 580.49542,2.0044731 h -12.82863 c -3.20716,0 -3.20716,0 -3.60805,3.207157 l -6.81521,56.5261419 v 1.603579 c -0.4009,2.004473 0.40089,2.806262 2.80626,2.806262"
     id="path2634" /><path
     style="stroke-width:4.00895;fill:#0082c8;fill-opacity:1"
     d="m 632.61172,66.147613 h 29.6662 c 3.20716,0 3.20716,0 3.60805,-3.207157 l 0.80179,-6.815209 v -1.603578 c 0,-1.603579 -0.80179,-2.004473 -3.60805,-2.004473 h -16.43668 l 1.20268,-10.42326 h 16.83758 c 3.20716,0 3.20716,0 3.60805,-3.207157 l 0.80179,-6.815209 v -1.603579 c 0,-1.603578 -0.80179,-2.004473 -3.60805,-2.004473 H 649.0484 l 1.20268,-10.824155 h 16.83758 c 3.20715,0 3.20715,0 3.60805,-3.207157 L 671.4985,7.6169979 V 6.0134194 c 0,-1.6035785 -0.80179,-2.0044732 -3.60805,-2.0044732 h -29.66621 c -3.20715,0 -3.20715,0 -3.60805,3.207157 l -6.81521,56.5261418 v 1.603579 c 1.60358,0 2.00448,0.801789 4.81074,0.801789"
     id="path135" /></g>
    <path
   class="st0"
   d="m 691.94412,121.87197 c -4.81073,0 -8.81968,4.00894 -9.22057,8.81968 -0.4009,4.40984 2.40536,8.01789 6.8152,8.41878 h 1.20269 c 4.81073,0 8.81968,-3.60805 9.22058,-8.41878 0.40089,-4.40984 -2.40537,-8.01789 -6.81521,-8.81968 -0.4009,0 -0.80179,-0.4009 -1.20269,0 m -1.20268,15.63489 c -3.60805,0 -6.81521,-2.80627 -6.81521,-6.41432 v -0.80179 c 0.40089,-4.00894 3.60805,-7.2161 7.617,-7.2161 3.60805,0 6.41431,2.80626 6.41431,6.41431 v 0.80179 c 0.4009,4.00895 -3.20715,7.21611 -7.2161,7.21611"
   fill="#f7f7f9"
   id="path137"
   sodipodi:nodetypes="cccsccccscsscc"
   style="stroke-width:4.00895;fill:#0082c8;fill-opacity:1" />
    <path
   class="st0"
   d="m 694.75039,128.28628 c 0,-0.80179 0,-1.20268 -0.4009,-1.60358 -0.40089,-0.80179 -1.20268,-1.20268 -2.80626,-1.20268 h -1.60358 c -0.4009,0 -0.80179,0 -0.80179,0.40089 l -2.00447,8.81968 c 0,0.4009 0,0.4009 0.40089,0.4009 h 0.80179 c 0.4009,0 0.80179,0 0.80179,-0.4009 l 0.80179,-3.60805 h 0.40089 l 2.00448,3.60805 c 0,0.4009 0.40089,0.4009 0.80179,0.4009 h 0.80179 c 0,0 0.40089,0 0.40089,-0.4009 v -0.40089 l -2.00447,-3.60805 c 1.20268,0 2.40537,-0.80179 2.40537,-2.40537 m -4.00895,1.60358 h -0.4009 l 0.4009,-2.80626 h 0.40089 c 1.20269,0 1.60358,0.40089 1.60358,1.20268 0,0.40089 -0.40089,0.80179 -0.80179,1.20268 0,0.4009 -0.80179,0.4009 -1.20268,0.4009"
   fill="#f7f7f9"
   id="path139"
   style="stroke-width:4.00895;fill:#0082c8;fill-opacity:1" />
    
<g
   id="g2664"><path
     style="stroke-width:4.00895;fill:#0082c8;fill-opacity:1"
     d="m 202.05089,89.399501 c 0.80179,0 1.60358,-0.400894 2.40537,-0.801789 3.20716,-1.603578 6.81521,-3.608052 8.81968,-4.810735 1.20268,-0.80179 2.00447,-1.202684 2.80626,-1.603579 l 0.4009,-0.400895 c 2.80626,-1.202683 5.21163,-2.405367 8.01789,-3.608051 6.81521,-2.806263 14.43221,-4.409841 21.64831,-5.612525 l 1.60358,-0.400895 c 5.21163,-0.801789 9.22057,-1.603578 12.02684,-2.004473 2.40536,-0.400894 4.40984,-0.801789 6.41431,-0.801789 0,0 7.2161,-1.202684 8.81968,-1.202684 4.00895,-0.801789 8.0179,-1.603578 11.62595,-3.207157 3.20715,-1.603578 6.41431,-3.207157 9.62147,-5.21163 0.40089,-0.400895 0.40089,-1.202684 0,-1.603578 -0.4009,-0.400895 -0.4009,-0.80179 -0.80179,-0.80179 h -0.4009 l -1.20268,0.400895 c -1.60358,0.801789 -5.61252,2.806262 -8.01789,3.608052 -4.40984,1.603578 -9.22058,2.806262 -14.03131,3.207157 h -0.80179 c -1.20269,0.400894 -4.81074,0.400894 -6.41432,0.801789 h -12.42773 c -3.20716,0 -6.41431,-0.400895 -8.81968,-0.400895 h -3.60805 c -5.21163,0.400895 -10.42326,1.202684 -15.234,2.405368 -4.81074,0.801789 -10.02237,1.603578 -15.234,2.004473 h -1.20268 c -1.20268,0 -2.00447,0 -3.20716,-0.400895 -1.60358,-0.400894 -2.80626,-0.801789 -4.40984,-1.603578 -4.40984,-2.405368 -8.81968,-4.810736 -13.22952,-7.616998 -4.00895,-3.207157 -8.41879,-6.013419 -13.22952,-8.418787 l -0.4009,0.801789 c -3.20715,-1.603578 -6.81521,-2.806262 -11.22505,-4.409841 -4.00894,-1.603578 -8.01789,-3.207157 -11.62594,-5.21163 -1.60358,-0.801789 -4.81074,-2.405368 -5.61253,-3.207157 l -0.80179,-0.400894 c -4.40984,-2.405368 -8.01789,-5.211631 -11.62594,-8.418788 -2.00447,-2.004473 -4.40984,-5.21163 -6.01342,-6.815208 l -0.80179,-0.801789 -0.40089,-0.400895 c -0.4009,0 -0.80179,0 -1.20269,0.400895 -0.40089,0.400894 -0.80179,0.801789 -0.80179,1.603578 2.00448,3.207157 4.40985,6.013419 6.81521,8.819682 2.80627,2.806262 6.01342,5.21163 9.62147,7.216103 1.60358,0.801789 7.617,4.810736 7.617,4.810736 1.60358,1.202683 3.20716,2.004473 5.61253,3.608051 2.80626,1.603579 6.01342,3.608052 10.42326,6.414314 l 1.20268,0.801789 c 6.41431,3.608052 12.42773,8.418788 17.63936,13.630418 2.00448,2.004473 4.00895,4.409841 6.01342,6.414314 l 0.4009,0.400894 c 0.40089,0.400895 1.20268,1.202684 2.00447,2.405368 1.60358,2.004473 4.00895,5.21163 6.41432,8.017893 0.80178,1.202683 2.00447,2.004473 3.60805,2.004473 0,0 0.80179,0.400894 1.20268,0.400894"
     id="path2648" /><path
     class="st0"
     d="m 300.27007,132.29523 10.02237,-54.922567 c 2.80626,6.013419 6.01342,12.427733 9.62147,18.040258 l 23.65278,39.287669 c 2.80627,4.40984 2.80627,4.00895 8.41879,4.00895 h 34.07604 c 5.61253,0 6.01342,0 8.0179,-3.20716 l 0.80179,-2.00447 10.42326,-19.64384 h 47.70646 l 3.20715,18.84205 c 1.20269,6.01342 1.20269,6.01342 7.617,6.01342 h 22.04921 c 5.61252,0 7.61699,-0.80179 8.01789,-4.00895 0,-1.60357 0,-2.80626 -0.4009,-4.40984 L 473.05566,8.4187871 c -0.80179,-6.414314 -1.20269,-6.414314 -7.617,-6.414314 h -29.6662 c -5.61253,0 -6.01342,0 -8.0179,3.207157 L 426.95278,7.2161032 369.62484,107.43976 346.77385,71.359243 395.68299,12.026839 c 1.60358,-1.603579 2.80627,-3.6080519 2.80627,-6.0134196 0,-2.8062624 -1.20269,-3.6080517 -7.21611,-3.6080517 h -23.65278 c -5.21163,0 -5.21163,-0.4008946 -8.81968,4.0089463 L 313.0987,62.138667 322.31928,10.42326 c 0.40089,-1.2026836 0.40089,-2.4053675 0.80179,-3.6080514 0.40089,-3.6080516 -1.20269,-4.4098409 -7.21611,-4.4098409 h -20.44562 c -6.81521,0 -7.2161,0 -8.41879,6.8152087 L 278.62176,54.922564 C 275.41461,21.64831 249.75735,0 212.07326,0 c -29.26531,0 -53.31899,12.427733 -67.7512,32.873359 0.80179,0.400895 1.60358,1.202684 2.40537,1.603579 l 0.80179,0.400894 c 0.4009,0.400895 3.60805,2.004473 5.21163,2.806263 3.20716,1.603578 7.617,3.608051 11.22505,4.810735 h 0.4009 c 4.00894,1.603579 8.01789,3.207157 11.22505,4.409841 l 0.40089,0.400895 h 0.40089 c 8.0179,-9.220577 19.64384,-14.432207 32.07157,-14.432207 18.04026,0 30.86889,10.42326 33.67515,26.85994 h 0.80179 c 2.80627,0 6.41432,0 9.22058,0.400895 h 12.42773 c 1.60358,0 5.21163,-0.400895 5.61253,-0.400895 h 1.20268 c 4.40984,-0.400895 8.41879,-1.202684 12.82863,-2.806262 2.40537,-0.80179 6.01342,-2.806263 7.617,-3.608052 l 0.80179,-0.400895 h 0.40089 c 0.4009,-0.400894 0.80179,-0.400894 1.20268,-0.400894 h 2.00448 c 2.00447,0.400894 3.60805,1.603578 4.40984,3.207157 1.60358,2.806262 0.80179,6.414314 -1.60358,8.017892 -3.20716,2.405368 -6.81521,4.008947 -10.42326,5.612525 -4.00895,1.603579 -8.41879,2.405368 -12.42773,3.207157 -1.20269,0 -4.00895,0.801789 -6.81521,1.202684 -0.80179,0 -1.60358,0.400895 -2.00448,0.400895 -2.00447,0.400894 -4.00894,0.400894 -6.41431,0.801789 -2.80626,0.400894 -6.81521,0.801789 -12.02684,2.004473 l -1.60358,0.400895 h -0.40089 c -2.40537,0.400894 -4.00895,0.801789 -5.61253,1.202683 -4.40984,17.639364 -20.84652,29.666204 -38.88677,28.864414 -22.04921,0 -36.08052,-14.432207 -34.87784,-36.481411 0,-2.405368 0.4009,-4.810736 1.20269,-6.815209 -1.60358,-1.202684 -3.60805,-2.405368 -6.41432,-4.008946 l -1.20268,-0.80179 c -4.40984,-2.806262 -7.617,-4.810735 -10.42326,-6.414314 -2.40537,-1.603578 -4.00895,-2.405367 -5.61253,-3.608051 l -0.80179,-0.400895 c -2.80626,-1.603578 -5.61252,-3.608051 -6.8152,-4.008946 -3.60806,-2.405368 -7.21611,-5.21163 -10.02237,-8.017893 -2.80626,-2.806262 -5.21163,-6.013419 -7.617,-9.621471 -1.60358,-2.806262 -0.80179,-6.414314 2.00448,-8.017892 1.20268,-0.801789 2.40536,-1.202684 4.00894,-1.202684 h 0.4009 c 0.80179,0 1.20268,0.400895 2.00447,0.400895 l 0.40089,0.400894 c 0.4009,0.400895 1.20269,0.80179 1.60358,1.202684 v 0.400895 c 0,0 0.4009,0.400894 0.4009,0.801789 1.20268,1.603579 4.00894,4.409841 5.61252,6.414314 1.20269,1.202684 2.80626,2.405368 4.00895,3.608052 l 3.60805,-20.445626 0.40089,-3.6080518 c 0.4009,-3.6080516 -1.20268,-4.4098408 -7.2161,-4.4098408 h -20.84652 c -6.81521,0 -7.2161,0 -8.41879,6.8152086 l -7.61699,42.895725 H 50.913617 l 7.616998,-41.693041 c 0,-2.0044733 0.400895,-3.2071571 0.400895,-4.409841 C 59.332404,2.8062624 57.728826,2.0044731 51.715407,2.0044731 H 30.868886 c -6.815209,0 -7.216103,0 -8.418787,6.8152086 L 0.40089462,130.69165 0,134.2997 c 0,3.60805 1.2026839,4.00895 7.2161032,4.00895 H 28.062624 c 6.815208,0 7.216103,0 8.418787,-6.81521 l 9.220576,-50.111831 h 49.310039 l -8.819682,48.909141 c -0.400894,1.20269 -0.400894,2.40537 -0.801789,3.60805 0,3.60806 2.004473,4.00895 8.017893,4.00895 h 20.445622 c 6.81521,0 7.21611,0 8.41879,-6.81521 l 8.81968,-49.310037 c 2.00448,35.679627 29.26531,59.332407 70.15656,59.332407 25.65726,0 46.50378,-9.62147 60.53509,-27.66173 3.60805,-4.81074 6.81521,-9.62147 9.22058,-14.833102 l -6.01342,32.071572 -0.4009,3.60805 c -0.40089,3.60805 1.20269,4.00895 7.21611,4.00895 h 20.44562 c 6.41432,0.80178 6.81521,0.40089 8.01789,-6.01342 M 435.37156,58.530615 c 2.80627,-5.21163 5.21163,-10.824155 7.21611,-16.436679 0.40089,6.815208 1.20268,14.031311 2.40536,20.84652 l 3.20716,24.053678 h -28.06262 z"
     fill="#f7f7f9"
     id="path2211"
     sodipodi:nodetypes="ccccsscccccsscccsscccccsssccccssccscscscccccscscssccsccscccccccccccccccccccccsccsscsccccccssscccccsscccsscccccssccscccsscccccccc"
     style="stroke-width:4.00895;fill:#0082c8;fill-opacity:1" /></g></svg>
